<svg width="140" height="140" viewBox="0 0 140 140" fill="none" xmlns="http://www.w3.org/2000/svg">
<circle cx="70" cy="70" r="68.5" fill="#E5FF00" fill-opacity="0.2" stroke="#E5FF00" stroke-width="3"/>
<g clip-path="url(#clip0_2951_3946)">
<path d="M69.6175 25L69.0143 27.0504V86.5471L69.6175 87.1492L97.2352 70.8245L69.6175 25Z" fill="#B4C709"/>
<path d="M69.6177 25L42 70.8245L69.6177 87.1494V58.2715V25Z" fill="#E5FF00"/>
<path d="M69.6175 92.379L69.2776 92.7934V113.987L69.6175 114.98L97.2516 76.0625L69.6175 92.379Z" fill="#A3B415"/>
<path d="M69.6177 114.98V92.3781L42 76.0615L69.6177 114.98Z" fill="#E5FF00"/>
<path d="M69.6175 87.1499L97.2348 70.8254L69.6175 58.2725V87.1499Z" fill="#93A30B"/>
<path d="M42.0002 70.8254L69.6175 87.1499V58.2725L42.0002 70.8254Z" fill="#A4B415"/>
</g>
<defs>
<clipPath id="clip0_2951_3946">
<rect width="55.2518" height="90" fill="white" transform="translate(42 25)"/>
</clipPath>
</defs>
</svg>
