<svg width="140" height="140" viewBox="0 0 140 140" fill="none" xmlns="http://www.w3.org/2000/svg">
<circle cx="70" cy="70" r="68.5" fill="#E5FF00" fill-opacity="0.2" stroke="#E5FF00" stroke-width="3"/>
<path d="M110 72.5C110 89 104 92 95 96.5C91.5 105 89 108 79.5 110C70.5 113.5 62.7539 105.87 58.5 104.5C43 107 31 92.5 34.5 77.5C33.8267 74.4406 29 70.5 29 60C29 47.5411 37.1783 50.5052 45.5 42.5C53.4094 34.8915 52.1584 28 64 28C68.8944 28 78.1022 33.5251 82.5 35C107 43.2169 106.5 49 104 60C104.604 62.9053 110 69.4156 110 72.5Z" fill="#2E3300"/>
<path d="M107.701 62.0103C108.684 59.0475 109.024 55.9091 108.697 52.8045C108.371 49.6999 107.386 46.7006 105.809 44.007C103.469 39.9347 99.8969 36.7105 95.6069 34.7994C91.3169 32.8884 86.5307 32.3891 81.9386 33.3737C79.3304 30.4721 76.0048 28.3078 72.2956 27.098C68.5864 25.8883 64.6242 25.6756 60.8068 26.4815C56.9894 27.2873 53.4512 29.0832 50.5475 31.689C47.6437 34.2947 45.4766 37.6185 44.2636 41.3267C41.2042 41.9539 38.314 43.2269 35.786 45.0607C33.2579 46.8944 31.1505 49.2466 29.6043 51.96C27.2391 56.0256 26.2283 60.738 26.7181 65.4159C27.2078 70.0939 29.1727 74.4948 32.3286 77.9823C31.3404 80.9439 30.996 84.0824 31.3184 87.1878C31.6409 90.2933 32.6229 93.294 34.1986 95.9893C36.5412 100.063 40.1167 103.288 44.4099 105.199C48.7031 107.11 53.4922 107.609 58.087 106.623C60.1594 108.958 62.7062 110.824 65.5573 112.096C68.4083 113.368 71.498 114.017 74.62 114C79.3268 114.004 83.9133 112.513 87.7173 109.741C91.5213 106.969 94.3461 103.06 95.784 98.578C98.8423 97.9492 101.731 96.6755 104.259 94.8419C106.786 93.0083 108.893 90.6569 110.44 87.9447C112.777 83.8854 113.77 79.1911 113.278 74.5331C112.786 69.875 110.834 65.4918 107.701 62.0103ZM74.62 108.243C70.7662 108.25 67.033 106.9 64.0746 104.43L64.5916 104.133L82.1146 94.0203C82.55 93.7643 82.9114 93.3996 83.1634 92.9618C83.4153 92.5241 83.5492 92.0284 83.552 91.5233V66.821L90.9586 71.1037C90.9952 71.1222 91.027 71.1492 91.0512 71.1823C91.0754 71.2154 91.0914 71.2538 91.098 71.2943V91.7653C91.0883 96.1326 89.3491 100.318 86.261 103.406C83.1729 106.494 78.9872 108.234 74.62 108.243ZM39.2 93.1147C37.2658 89.7766 36.5712 85.8632 37.2383 82.0633L37.759 82.375L55.2966 92.4913C55.7303 92.7456 56.2239 92.8797 56.7266 92.8797C57.2294 92.8797 57.723 92.7456 58.1566 92.4913L79.581 80.1383V88.689C79.5794 88.7336 79.5677 88.7773 79.5468 88.8166C79.5258 88.856 79.4961 88.8901 79.46 88.9163L61.7133 99.15C57.9264 101.33 53.4293 101.919 49.2087 100.788C44.9881 99.6561 41.3886 96.8967 39.2 93.1147ZM34.58 54.952C36.5269 51.5919 39.6001 49.0292 43.2553 47.7177V68.5333C43.2489 69.036 43.3776 69.5312 43.6278 69.9671C43.878 70.4031 44.2407 70.764 44.678 71.012L65.9996 83.3137L58.593 87.5963C58.5529 87.6175 58.5082 87.6286 58.4628 87.6286C58.4174 87.6286 58.3728 87.6175 58.3326 87.5963L40.6226 77.381C36.8413 75.1908 34.0822 71.5913 32.9496 67.3708C31.817 63.1504 32.4033 58.6531 34.58 54.864V54.952ZM95.4356 69.087L74.048 56.668L81.4363 52.4C81.4764 52.3788 81.5211 52.3677 81.5665 52.3677C81.6118 52.3677 81.6565 52.3788 81.6966 52.4L99.4066 62.6337C102.116 64.1954 104.325 66.4959 105.776 69.2664C107.226 72.0369 107.859 75.163 107.599 78.2795C107.339 81.3959 106.197 84.3741 104.308 86.866C102.418 89.3579 99.8587 91.2607 96.928 92.352V71.5327C96.9126 71.0306 96.767 70.5412 96.5053 70.1124C96.2437 69.6836 95.8751 69.3303 95.4356 69.087ZM102.806 58.0027L102.289 57.691L84.784 47.4903C84.3475 47.2344 83.8507 47.0995 83.3448 47.0995C82.8389 47.0995 82.3421 47.2344 81.9056 47.4903L60.4996 59.8433V51.289C60.4952 51.2459 60.5024 51.2025 60.5204 51.1631C60.5385 51.1238 60.5668 51.09 60.6023 51.0653L78.3123 40.8463C81.0269 39.2841 84.1301 38.5267 87.2592 38.6627C90.3883 38.7988 93.4141 39.8226 95.9829 41.6146C98.5517 43.4066 100.557 45.8927 101.766 48.7824C102.974 51.672 103.334 54.8459 102.806 57.933V58.0027ZM56.459 73.1643L49.0523 68.8963C49.0151 68.874 48.9832 68.8436 48.9591 68.8075C48.935 68.7714 48.9193 68.7303 48.913 68.6873V48.275C48.9191 45.144 49.816 42.0794 51.4988 39.4391C53.1816 36.7988 55.5809 34.6918 58.4165 33.3642C61.252 32.0366 64.4068 31.5431 67.5124 31.9415C70.6179 32.3399 73.546 33.6136 75.9546 35.614L75.434 35.9073L57.9146 46.02C57.4786 46.2756 57.1165 46.6401 56.8638 47.0779C56.6112 47.5156 56.4767 48.0116 56.4736 48.517L56.459 73.1643ZM60.4813 64.4927L70.022 58.9927L79.581 64.4927V75.489L70.0586 80.989L60.4996 75.489L60.4813 64.4927Z" fill="#E5FF00"/>
</svg>
