<svg width="80" height="80" viewBox="0 0 80 80" fill="none" xmlns="http://www.w3.org/2000/svg">
<g filter="url(#filter0_d_47_218)">
<rect x="15" y="11" width="50" height="50" rx="25" fill="#E5FF00"/>
<rect x="15.6" y="11.6" width="48.8" height="48.8" rx="24.4" stroke="#E5FF00" stroke-width="1.2"/>
</g>
<path d="M48.2509 27.9683C46.733 27.2789 45.1061 26.7693 43.4048 26.4795C43.3896 26.4766 43.3739 26.4785 43.3599 26.4849C43.3459 26.4914 43.3341 26.502 43.3264 26.5155C43.1181 26.8842 42.8859 27.3648 42.7232 27.7445C40.9188 27.4729 39.0844 27.4729 37.28 27.7445C37.0987 27.3237 36.8944 26.9134 36.6679 26.5155C36.6602 26.5019 36.6486 26.491 36.6346 26.4842C36.6206 26.4774 36.6048 26.4751 36.5895 26.4775C34.8891 26.7673 33.2622 27.2769 31.7434 27.9673C31.7303 27.9728 31.7193 27.9822 31.7117 27.9943C28.6244 32.5656 27.7782 37.0239 28.1939 41.4263C28.1951 41.4371 28.1984 41.4476 28.2037 41.457C28.209 41.4665 28.2161 41.4747 28.2247 41.4813C30.0266 42.8027 32.0364 43.8092 34.1699 44.4589C34.1848 44.4635 34.2007 44.4635 34.2156 44.4588C34.2304 44.4542 34.2436 44.4452 34.2533 44.4329C34.7124 43.8145 35.1192 43.1584 35.4695 42.4715C35.4743 42.4621 35.4772 42.4518 35.4777 42.4412C35.4783 42.4306 35.4765 42.42 35.4727 42.4102C35.4688 42.4003 35.4629 42.3914 35.4553 42.3841C35.4478 42.3767 35.4387 42.3711 35.4288 42.3676C34.788 42.1245 34.167 41.8312 33.5717 41.4903C33.561 41.4841 33.552 41.4754 33.5455 41.4649C33.539 41.4544 33.5351 41.4424 33.5344 41.43C33.5336 41.4176 33.5358 41.4052 33.541 41.394C33.5461 41.3827 33.554 41.3729 33.5638 41.3654C33.6888 41.2725 33.8138 41.1755 33.9328 41.0786C33.9435 41.0699 33.9564 41.0644 33.9701 41.0626C33.9838 41.0608 33.9977 41.0629 34.0102 41.0686C37.9059 42.8312 42.125 42.8312 45.9751 41.0686C45.9877 41.0626 46.0017 41.0602 46.0156 41.0618C46.0295 41.0634 46.0426 41.0689 46.0535 41.0776C46.1726 41.1755 46.2966 41.2725 46.4225 41.3654C46.4325 41.3727 46.4404 41.3824 46.4457 41.3936C46.451 41.4048 46.4535 41.4171 46.4529 41.4295C46.4523 41.4418 46.4487 41.4539 46.4424 41.4645C46.436 41.4751 46.4272 41.484 46.4166 41.4903C45.8234 41.834 45.2063 42.1248 44.5585 42.3666C44.5486 42.3702 44.5395 42.3759 44.5319 42.3834C44.5244 42.3908 44.5184 42.3998 44.5146 42.4098C44.5107 42.4197 44.509 42.4303 44.5096 42.441C44.5102 42.4516 44.513 42.462 44.5178 42.4715C44.875 43.1579 45.2837 43.8114 45.7331 44.4319C45.7424 44.4446 45.7554 44.4541 45.7704 44.4592C45.7853 44.4642 45.8014 44.4644 45.8164 44.4599C47.9536 43.812 49.9667 42.805 51.7706 41.4813C51.7794 41.4751 51.7868 41.4671 51.7923 41.4578C51.7977 41.4485 51.8012 41.4381 51.8023 41.4273C52.2984 36.3375 50.971 31.9151 48.2816 27.9963C48.275 27.9835 48.2641 27.9736 48.2509 27.9683ZM36.0518 38.7455C34.8792 38.7455 33.912 37.6774 33.912 36.3675C33.912 35.0565 34.8604 33.9894 36.0518 33.9894C37.2522 33.9894 38.2105 35.0655 38.1916 36.3675C38.1916 37.6784 37.2432 38.7455 36.0518 38.7455ZM43.9633 38.7455C42.7897 38.7455 41.8235 37.6774 41.8235 36.3675C41.8235 35.0565 42.7709 33.9894 43.9633 33.9894C45.1637 33.9894 46.122 35.0655 46.1031 36.3675C46.1031 37.6784 45.1646 38.7455 43.9633 38.7455Z" fill="black"/>
<defs>
<filter id="filter0_d_47_218" x="0" y="0" width="80" height="80" filterUnits="userSpaceOnUse" color-interpolation-filters="sRGB">
<feFlood flood-opacity="0" result="BackgroundImageFix"/>
<feColorMatrix in="SourceAlpha" type="matrix" values="0 0 0 0 0 0 0 0 0 0 0 0 0 0 0 0 0 0 127 0" result="hardAlpha"/>
<feOffset dy="4"/>
<feGaussianBlur stdDeviation="7.5"/>
<feComposite in2="hardAlpha" operator="out"/>
<feColorMatrix type="matrix" values="0 0 0 0 0.898039 0 0 0 0 1 0 0 0 0 0 0 0 0 0.5 0"/>
<feBlend mode="normal" in2="BackgroundImageFix" result="effect1_dropShadow_47_218"/>
<feBlend mode="normal" in="SourceGraphic" in2="effect1_dropShadow_47_218" result="shape"/>
</filter>
</defs>
</svg>
