<svg width="80" height="80" viewBox="0 0 80 80" fill="none" xmlns="http://www.w3.org/2000/svg">
<g filter="url(#filter0_d_47_208)">
<rect x="15" y="11" width="50" height="50" rx="25" fill="#E5FF00"/>
<rect x="15.6" y="11.6" width="48.8" height="48.8" rx="24.4" stroke="#E5FF00" stroke-width="1.2"/>
</g>
<path d="M51.9048 28.7523C51.073 29.1369 50.1794 29.3968 49.2401 29.5142C50.2093 28.9091 50.9345 27.9566 51.2802 26.8347C50.3696 27.399 49.3729 27.7963 48.3335 28.0092C47.6346 27.2305 46.7089 26.7144 45.7 26.541C44.6911 26.3676 43.6556 26.5465 42.7542 27.0501C41.8528 27.5536 41.136 28.3536 40.715 29.3258C40.294 30.298 40.1924 31.388 40.4259 32.4266C38.5807 32.3299 36.7756 31.8295 35.1277 30.9578C33.4799 30.0861 32.0261 28.8627 30.8607 27.3668C30.4622 28.084 30.2331 28.9155 30.2331 29.8011C30.2327 30.5983 30.4208 31.3833 30.7809 32.0864C31.141 32.7896 31.6618 33.3891 32.2972 33.8318C31.5603 33.8074 30.8397 33.5996 30.1953 33.2259V33.2882C30.1952 34.4064 30.5659 35.4901 31.2444 36.3555C31.923 37.2209 32.8676 37.8147 33.918 38.0362C33.2344 38.2292 32.5177 38.2576 31.822 38.1193C32.1184 39.0814 32.6957 39.9227 33.473 40.5254C34.2504 41.1282 35.189 41.4622 36.1574 41.4807C34.5135 42.8272 32.4834 43.5575 30.3935 43.5543C30.0233 43.5544 29.6534 43.5319 29.2858 43.4868C31.4071 44.9099 33.8765 45.6651 36.3984 45.6622C44.9356 45.6622 49.6027 38.2846 49.6027 31.8861C49.6027 31.6782 49.5977 31.4683 49.5887 31.2604C50.4965 30.5754 51.2801 29.7272 51.9028 28.7554L51.9048 28.7523Z" fill="black"/>
<defs>
<filter id="filter0_d_47_208" x="0" y="0" width="80" height="80" filterUnits="userSpaceOnUse" color-interpolation-filters="sRGB">
<feFlood flood-opacity="0" result="BackgroundImageFix"/>
<feColorMatrix in="SourceAlpha" type="matrix" values="0 0 0 0 0 0 0 0 0 0 0 0 0 0 0 0 0 0 127 0" result="hardAlpha"/>
<feOffset dy="4"/>
<feGaussianBlur stdDeviation="7.5"/>
<feComposite in2="hardAlpha" operator="out"/>
<feColorMatrix type="matrix" values="0 0 0 0 0.898039 0 0 0 0 1 0 0 0 0 0 0 0 0 0.5 0"/>
<feBlend mode="normal" in2="BackgroundImageFix" result="effect1_dropShadow_47_208"/>
<feBlend mode="normal" in="SourceGraphic" in2="effect1_dropShadow_47_208" result="shape"/>
</filter>
</defs>
</svg>
